<?xml version="1.0" encoding="UTF-8"?>
<svg width="50px" height="40px" viewBox="0 0 50 40" version="1.1" xmlns="http://www.w3.org/2000/svg" xmlns:xlink="http://www.w3.org/1999/xlink">
    <!-- Generator: Sketch 55.1 (78136) - https://sketchapp.com -->
    <title>download</title>
    <desc>Created with Sketch.</desc>
    <g id="download" stroke="none" stroke-width="1" fill="none" fill-rule="evenodd">
        <g id="icon" transform="translate(8.000000, 3.000000)" fill="#28ACEB" fill-rule="nonzero">
            <path d="M29.0894222,22.0768889 L29.0894222,29.9901333 L4.884,29.9901333 L4.884,22.0768889 L0.231733333,22.0768889 L0.231733333,32.3162667 C0.231733333,33.6000889 1.27173333,34.6412444 2.56133333,34.6412444 L31.4120889,34.6412444 C32.7005333,34.6412444 33.7416889,33.6012444 33.7416889,32.3162667 L33.7416889,22.0768889 L29.0894222,22.0768889 Z" id="Path"></path>
            <path d="M16.5608889,21.2922667 L9.90026667,13.2438222 C9.90026667,13.2438222 8.88684444,12.2870222 9.98577778,12.2870222 C11.0847111,12.2870222 13.7390222,12.2870222 13.7390222,12.2870222 C13.7390222,12.2870222 13.7390222,11.6433778 13.7390222,10.6507556 C13.7390222,7.8208 13.7390222,2.67048889 13.7390222,0.570844444 C13.7390222,0.570844444 13.5899556,0 14.4496889,0 C15.3163556,0 19.1123556,0 19.7328889,0 C20.3522667,0 20.3384,0.480711111 20.3384,0.480711111 C20.3384,2.5168 20.3384,7.84506667 20.3384,10.5825778 C20.3384,11.4700444 20.3384,12.0455111 20.3384,12.0455111 C20.3384,12.0455111 22.4669333,12.0455111 23.8027556,12.0455111 C25.1362667,12.0455111 24.1320889,13.0473778 24.1320889,13.0473778 C24.1320889,13.0473778 18.4652444,20.5700444 17.6748444,21.3592889 C17.1063111,21.9312889 16.5608889,21.2922667 16.5608889,21.2922667 Z" id="Path"></path>
        </g>
    </g>
</svg>