<?xml version="1.0" encoding="UTF-8"?>
<svg width="50px" height="40px" viewBox="0 0 50 40" version="1.1" xmlns="http://www.w3.org/2000/svg" xmlns:xlink="http://www.w3.org/1999/xlink">
    <!-- Generator: Sketch 55.1 (78136) - https://sketchapp.com -->
    <title>profile</title>
    <desc>Created with Sketch.</desc>
    <g id="profile" stroke="none" stroke-width="1" fill="none" fill-rule="evenodd">
        <g id="user" transform="translate(8.000000, 3.000000)" fill="#28ADEC" fill-rule="nonzero">
            <path d="M34.6666667,17.3333333 C34.6666667,7.77573333 26.8909333,0 17.3333333,0 C7.77573333,0 0,7.77573333 0,17.3333333 C0,20.8820444 1.07351111,24.1840444 2.91084444,26.9348444 L2.90968889,26.9469778 L3.02928889,27.1220444 C3.13328889,27.274 3.24537778,27.4178667 3.354,27.5657778 C3.39791111,27.6258667 3.44124444,27.6865333 3.48631111,27.7466222 C3.62382222,27.9292 3.76537778,28.1083111 3.90924444,28.2845333 C3.95084444,28.3353778 3.99302222,28.3856444 4.0352,28.4359111 C4.70368889,29.2361333 5.43746667,29.9687556 6.22671111,30.628 C6.27466667,30.6678667 6.32204444,30.7083111 6.37057778,30.7481778 C6.54275556,30.8885778 6.71666667,31.0260889 6.89404444,31.1595556 C6.96568889,31.2138667 7.03848889,31.2664444 7.11071111,31.3196 C7.27942222,31.4432444 7.44813333,31.5657333 7.62146667,31.6830222 C7.71391111,31.746 7.80982222,31.8049333 7.90342222,31.8661778 C8.14377778,32.0221778 8.38644444,32.1729778 8.63373333,32.3162667 C8.80591111,32.4168 8.97866667,32.5167556 9.15488889,32.6115111 C9.2612,32.6687111 9.36982222,32.7218667 9.47728889,32.7767556 C9.66448889,32.8726667 9.85342222,32.9656889 10.0446667,33.0546667 C10.1411556,33.0991556 10.2376444,33.1430667 10.3347111,33.1858222 C10.556,33.2840444 10.7801778,33.3770667 11.0060889,33.4660444 C11.076,33.4937778 11.1453333,33.5220889 11.2158222,33.5492444 C11.8357778,33.7838222 12.4724889,33.9848889 13.1236444,34.1478222 C13.1502222,34.1547556 13.1773778,34.1599556 13.2039556,34.1663111 C13.4916889,34.2368 13.7823111,34.2997778 14.0758222,34.3558222 C14.1538222,34.3708444 14.2318222,34.3841333 14.3098222,34.398 C14.3213778,34.4003111 14.3323556,34.4020444 14.3439111,34.4037778 L14.3421778,34.4153333 L14.6472444,34.4580889 C14.7165778,34.4690667 14.7859111,34.4771556 14.8552444,34.4869778 L14.9188,34.4956444 C14.9309333,34.4973778 14.9424889,34.4979556 14.9546222,34.4991111 C14.9858222,34.5031556 15.0176,34.5072 15.0488,34.5112444 C15.1435556,34.5239556 15.2377333,34.5360889 15.3324889,34.5476444 C15.5618667,34.5742222 15.7924,34.5950222 16.0246667,34.6123556 C16.0732,34.6158222 16.1217333,34.6216 16.1696889,34.6250667 C16.2251556,34.6285333 16.2812,34.6325778 16.3366667,34.6360444 C16.6671556,34.6545333 16.9988,34.6666667 17.3333333,34.6666667 C17.6678667,34.6666667 17.9995111,34.6545333 18.3294222,34.6360444 C18.3866222,34.6325778 18.4438222,34.6285333 18.5010222,34.6244889 C18.5495556,34.6210222 18.5980889,34.6152444 18.6472,34.6117778 C18.8771556,34.5944444 19.1065333,34.5736444 19.3341778,34.5476444 C19.4289333,34.5366667 19.5236889,34.5239556 19.6178667,34.5112444 C19.6554222,34.5060444 19.6929778,34.502 19.7299556,34.4968 C19.7415111,34.4950667 19.7536444,34.4944889 19.7652,34.4933333 L19.8235556,34.4852444 C19.8888444,34.476 19.9547111,34.4679111 20.0194222,34.4575111 L20.3435556,34.4118667 L20.3418222,34.3997333 C20.3470222,34.3985778 20.3522222,34.398 20.3574222,34.3968444 C20.4354222,34.3829778 20.5134222,34.3696889 20.5914222,34.3546667 C20.8849333,34.2986222 21.1755556,34.2356444 21.4632889,34.1651556 C21.4898667,34.1588 21.5170222,34.1530222 21.5436,34.1466667 C22.1947556,33.9837333 22.8314667,33.7826667 23.4514222,33.5480889 C23.5219111,33.5215111 23.5918222,33.4926222 23.6623111,33.4648889 C23.8882222,33.3759111 24.1118222,33.2828889 24.3331111,33.1852444 C24.4301778,33.1424889 24.5272444,33.0985778 24.6231556,33.0540889 C24.8144,32.9651111 25.0033333,32.8720889 25.1905333,32.7761778 C25.2985778,32.7212889 25.4066222,32.6675556 25.5129333,32.6109333 C25.6891556,32.5161778 25.8613333,32.4162222 26.0340889,32.3156889 C26.2813778,32.1718222 26.5246222,32.0216 26.7644,31.8656 C26.8585778,31.8043556 26.9539111,31.7454222 27.0463556,31.6824444 C27.2191111,31.5651556 27.3884,31.4426667 27.5571111,31.3190222 C27.6293333,31.2658667 27.7021333,31.2132889 27.7737778,31.1589778 C27.9505778,31.0255111 28.1250667,30.888 28.2972444,30.7476 C28.3457778,30.7077333 28.3931556,30.6672889 28.4411111,30.6274222 C29.2303556,29.9676 29.9641333,29.2355556 30.6332,28.4347556 C30.6753778,28.3844889 30.7169778,28.3348 30.758,28.2839556 C30.9018667,28.1077333 31.0434222,27.9286222 31.1809333,27.7460444 C31.226,27.6865333 31.2687556,27.6258667 31.3132444,27.5652 C31.4218667,27.4172889 31.5339556,27.2734222 31.6379556,27.1214667 L31.7575556,26.9464 L31.7564,26.9342667 C33.5931556,24.1840444 34.6666667,20.8820444 34.6666667,17.3333333 Z M33.5111111,17.3333333 C33.5111111,20.2060444 32.7548,22.9042667 31.4363111,25.2454222 C30.5078222,22.1670222 27.7812889,19.9356444 24.5116444,19.6744889 L24.4896889,19.6444444 L23.8685778,19.6444444 L21.1073778,19.6444444 L20.4336889,19.6444444 C20.3169778,19.6444444 20.2222222,19.5496889 20.2222222,19.4335556 L20.2222222,19.0608889 C20.2222222,18.9551556 20.3083111,18.8858222 20.3816889,18.8575111 C24.102,17.4587111 26.4223556,11.6560889 25.9358667,7.59777778 C25.6822222,5.48426667 24.6358667,3.59551111 23.1145778,2.22733333 C29.1876,4.55982222 33.5111111,10.4496889 33.5111111,17.3333333 Z M30.3552889,26.9186667 C30.3084889,26.9816444 30.2616889,27.0440444 30.2143111,27.1064444 C30.0854667,27.2757333 29.9554667,27.4438667 29.8202667,27.6079556 C29.8064,27.6247111 29.7919556,27.6408889 29.7780889,27.6576444 C29.3112444,28.2192444 28.8068444,28.7484889 28.2695111,29.2424889 C28.2377333,29.2719556 28.2059556,29.302 28.1736,29.3308889 C28.0135556,29.4759111 27.8494667,29.6168889 27.6836444,29.7555556 C27.6316444,29.7988889 27.5790667,29.8416444 27.5264889,29.8844 C27.3652889,30.0155556 27.2029333,30.1444 27.0371111,30.2692 C26.9810667,30.3113778 26.9232889,30.3512444 26.8666667,30.3928444 C26.7713333,30.4627556 26.6748444,30.5303556 26.5777778,30.5979556 L26.5777778,27.7333333 L25.4222222,27.7333333 L25.4222222,31.3346222 C25.3996889,31.3479111 25.3771556,31.3606222 25.3540444,31.3739111 C25.2067111,31.4582667 25.0593778,31.5420444 24.9097333,31.6212 C24.8074667,31.6755111 24.7034667,31.7280889 24.5994667,31.7806667 C24.4249778,31.8684889 24.2493333,31.9534222 24.0719556,32.0348889 C23.9852889,32.0747556 23.8992,32.1146222 23.8119556,32.1527556 C23.5895111,32.2498222 23.3647556,32.3422667 23.1382667,32.4295111 C23.0914667,32.4474222 23.0458222,32.4670667 22.9990222,32.4844 C22.4212444,32.7004889 21.8307556,32.8842222 21.2292889,33.0332889 C21.1859556,33.0442667 21.1420444,33.0529333 21.0987111,33.0633333 C20.8496889,33.1228444 20.5989333,33.1771556 20.3464444,33.2245333 C20.2875111,33.2355111 20.228,33.2459111 20.1684889,33.2563111 L19.1602667,26.5777778 L19.6444444,26.5777778 L19.6444444,25.1535556 L22.2276889,26.8753333 L24.6387556,20.8479556 C27.6888444,21.1917333 30.1415111,23.5479111 30.5592444,26.6326667 C30.4916444,26.7285778 30.4252,26.8244889 30.3552889,26.9186667 Z M13.5673778,33.0639111 C13.5240444,33.0535111 13.4807111,33.0442667 13.4373778,33.0338667 C12.8359111,32.8842222 12.2448444,32.7010667 11.6670667,32.4849778 C11.6202667,32.4676444 11.5740444,32.448 11.5278222,32.4300889 C11.3013333,32.3428444 11.0765778,32.2504 10.8547111,32.1533333 C10.7674667,32.1152 10.6808,32.0753333 10.5941333,32.0354667 C10.4167556,31.954 10.2411111,31.8690667 10.0666222,31.7812444 C9.96262222,31.7286667 9.85862222,31.6766667 9.75635556,31.6217778 C9.60671111,31.5426222 9.45937778,31.4582667 9.31204444,31.3744889 C9.28951111,31.3612 9.2664,31.3484889 9.24386667,31.3352 L9.24386667,27.7333333 L8.08831111,27.7333333 L8.08831111,30.5979556 C7.99182222,30.5303556 7.89475556,30.4621778 7.79942222,30.3928444 C7.7428,30.3512444 7.68502222,30.3113778 7.62897778,30.2692 C7.46315556,30.1444 7.3008,30.0155556 7.14017778,29.8849778 C7.08702222,29.8422222 7.03444444,29.7988889 6.98186667,29.7555556 C6.81604444,29.6174667 6.65253333,29.4764889 6.49306667,29.3314667 C6.46013333,29.302 6.42835556,29.2713778 6.396,29.2419111 C5.85866667,28.7479111 5.35426667,28.2192444 4.888,27.6576444 C4.87413333,27.6408889 4.85968889,27.6247111 4.84582222,27.6079556 C4.71062222,27.4438667 4.58062222,27.2757333 4.45177778,27.1064444 C4.4044,27.0440444 4.35702222,26.9816444 4.3108,26.9186667 C4.24146667,26.8244889 4.17502222,26.7285778 4.10742222,26.6326667 C4.52573333,23.5479111 6.97782222,21.1917333 10.0279111,20.8479556 L12.4389778,26.8753333 L15.0222222,25.1535556 L15.0222222,26.5777778 L15.5075556,26.5777778 L14.5137778,33.2603556 C14.4490667,33.2488 14.3843556,33.2378222 14.3202222,33.2256889 C14.0677333,33.1777333 13.8164,33.1234222 13.5673778,33.0639111 Z M14.7281333,17.7903556 C11.9652,16.7682667 9.82222222,12.0466667 9.82222222,8.66666667 C9.82222222,8.59271111 9.83088889,8.52048889 9.8332,8.44711111 L10.2561333,7.92537778 C11.2100444,6.79062222 12.8382222,6.46591111 14.3075111,7.11648889 C14.898,7.3788 15.5272,7.51111111 16.1777778,7.51111111 C17.8943556,7.51111111 19.4364444,6.578 20.2384,5.09368889 C22.0768889,5.69746667 23.7177778,6.83568889 24.8276889,8.27031111 C24.9969778,11.7947556 22.9244889,16.6671556 19.9755111,17.7759111 C19.4231556,17.9839111 19.0666667,18.4883111 19.0666667,19.0608889 L19.0666667,19.4335556 C19.0666667,20.0956889 19.5404444,20.6486222 20.1667556,20.7734222 L19.1810667,21.9555556 L15.4856,21.9555556 L14.4999111,20.7728444 C15.1262222,20.6486222 15.6,20.0951111 15.6,19.4335556 L15.6,19.0666667 C15.6,18.4969778 15.2504444,17.9839111 14.7281333,17.7903556 Z M17.3564444,1.15671111 C17.3633778,1.15671111 17.3691556,1.15671111 17.3755111,1.15671111 C17.6580444,1.15844444 17.9359556,1.17404444 18.2017333,1.20466667 C21.0669333,1.52417778 23.4745333,3.51866667 24.414,6.1672 C23.192,5.10293333 21.6938222,4.28364444 20.0824,3.84048889 L19.5855111,3.70413333 L19.3931111,4.18137778 C18.8609778,5.5016 17.5991111,6.35555556 16.1777778,6.35555556 C15.6895556,6.35555556 15.2175111,6.25617778 14.7755111,6.06031111 C13.1773778,5.35311111 11.4324889,5.54435556 10.1434667,6.48208889 C10.4976444,5.31151111 11.1372444,4.23915556 12.0276,3.35053333 C13.4454667,1.93555556 15.3284444,1.15671111 17.3564444,1.15671111 Z M19.6444444,23.2047111 L21.6487556,20.8 L23.4132889,20.8 L21.684,25.1240889 L19.6444444,23.7651556 L19.6444444,23.2047111 Z M18.6997778,33.4464 C18.5437778,33.4596889 18.3872,33.4747111 18.2323556,33.4839556 C17.9353778,33.5001333 17.6366667,33.5111111 17.3373778,33.5111111 C17.3177333,33.5111111 17.2975111,33.5093778 17.2778667,33.5093778 C16.9976444,33.5082222 16.718,33.4995556 16.4400889,33.4839556 C16.2875556,33.4752889 16.1338667,33.4602667 15.9801778,33.4475556 C15.8727111,33.4383111 15.7658222,33.4296444 15.6589333,33.4180889 L16.6758222,26.5777778 L17.9914222,26.5777778 L19.0233333,33.4169333 C18.9158667,33.4279111 18.8078222,33.4371556 18.6997778,33.4464 Z M18.4888889,25.4222222 L16.1777778,25.4222222 L16.1777778,24.3833778 L16.1777778,23.1111111 L18.4888889,23.1111111 L18.4888889,24.3833778 L18.4888889,25.4222222 Z M15.0222222,23.2047111 L15.0222222,23.7651556 L12.9832444,25.1246667 L11.2539556,20.8 L13.0184889,20.8 L15.0222222,23.2047111 Z M11.5451556,2.23022222 C11.4336444,2.33075556 11.3186667,2.42551111 11.2112,2.5324 C9.57031111,4.1704 8.66666667,6.34804444 8.66666667,8.66666667 C8.66666667,12.4967556 11.0875556,17.6759556 14.3271556,18.8736889 C14.3959111,18.8996889 14.4444444,18.9788444 14.4444444,19.0666667 L14.4444444,19.4335556 C14.4444444,19.5496889 14.3496889,19.6444444 14.2335556,19.6444444 L13.5598667,19.6444444 L10.7986667,19.6444444 L10.4837778,19.6444444 C10.4283111,19.6444444 10.3734222,19.6525333 10.3214222,19.6669778 C6.97897778,19.8651556 4.17502222,22.1161778 3.23093333,25.246 C1.91186667,22.9042667 1.15555556,20.2060444 1.15555556,17.3333333 C1.15555556,10.452 5.47617778,4.56444444 11.5451556,2.23022222 Z" id="Shape"></path>
        </g>
    </g>
</svg>