<?xml version="1.0" encoding="UTF-8"?>
<svg width="50px" height="40px" viewBox="0 0 50 40" version="1.1" xmlns="http://www.w3.org/2000/svg" xmlns:xlink="http://www.w3.org/1999/xlink">
    <!-- Generator: Sketch 55.1 (78136) - https://sketchapp.com -->
    <title>T&amp;C</title>
    <desc>Created with Sketch.</desc>
    <g id="T&amp;C" stroke="none" stroke-width="1" fill="none" fill-rule="evenodd">
        <g id="term" transform="translate(12.000000, 3.000000)" fill="#28ACEA" fill-rule="nonzero">
            <path d="M16.2318841,20.8 L16.2318841,15.6 L12.7536232,15.6 L12.7536232,13.8666667 C12.7536232,12.2490017 11.4781477,10.9777778 9.85507246,10.9777778 C8.23199725,10.9777778 6.95652174,12.2490017 6.95652174,13.8666667 L6.95652174,15.6 L3.47826087,15.6 L3.47826087,31.7777778 L10.4347826,31.7777778 L10.4347826,30.6222222 L4.63768116,30.6222222 L4.63768116,16.7555556 L6.95652174,16.7555556 L6.95652174,17.9111111 L8.11594203,17.9111111 L8.11594203,16.7555556 L11.5942029,16.7555556 L11.5942029,17.9111111 L12.7536232,17.9111111 L12.7536232,16.7555556 L15.0724638,16.7555556 L15.0724638,20.8 L16.2318841,20.8 Z M11.5942029,15.6 L8.11594203,15.6 L8.11594203,13.8666667 C8.11594203,12.8843316 8.86945203,12.1333333 9.85507246,12.1333333 C10.8406929,12.1333333 11.5942029,12.8843316 11.5942029,13.8666667 L11.5942029,15.6 Z" id="Shape"></path>
            <path d="M22.6086957,33.5111111 L1.73913043,33.5111111 C1.39124775,33.5111111 1.15942029,33.2800564 1.15942029,32.9333333 L1.15942029,1.73333333 C1.15942029,1.38661026 1.39124775,1.15555556 1.73913043,1.15555556 L18.5507246,1.15555556 L18.5507246,4.62222222 C18.5507246,5.60455726 19.3042346,6.35555556 20.2898551,6.35555556 L21.4492754,6.35555556 L21.4492754,5.2 L20.2898551,5.2 C19.9419724,5.2 19.7101449,4.96894529 19.7101449,4.62222222 L19.7101449,2.08005641 L23.1884058,5.9509983 L23.1884058,20.8 L24.3478261,20.8 L24.3478261,5.54672307 L19.3622622,0 L1.73913043,0 C0.75351,0 -2.84217094e-14,0.7509983 -2.84217094e-14,1.73333333 L-2.84217094e-14,32.9333333 C-2.84217094e-14,33.9156684 0.75351,34.6666667 1.73913043,34.6666667 L22.6086957,34.6666667 C23.5943161,34.6666667 24.3478261,33.9156684 24.3478261,32.9333333 L23.1884058,32.9333333 C23.1884058,33.2800564 22.9565783,33.5111111 22.6086957,33.5111111 Z" id="Path"></path>
            <polygon id="Path" points="8.11594203 2.88888889 14.4927536 2.88888889 14.4927536 4.04444444 8.11594203 4.04444444"></polygon>
            <polygon id="Path" points="3.47826087 5.77777778 15.6521739 5.77777778 15.6521739 6.93333333 3.47826087 6.93333333"></polygon>
            <polygon id="Path" points="3.47826087 8.66666667 20.8695652 8.66666667 20.8695652 9.82222222 3.47826087 9.82222222"></polygon>
            <polygon id="Path" points="14.4927536 11.5555556 20.8695652 11.5555556 20.8695652 12.7111111 14.4927536 12.7111111"></polygon>
            <polygon id="Path" points="17.3913043 14.4444444 20.8695652 14.4444444 20.8695652 15.6 17.3913043 15.6"></polygon>
            <polygon id="Path" points="17.3913043 17.3333333 20.8695652 17.3333333 20.8695652 18.4888889 17.3913043 18.4888889"></polygon>
            <polygon id="Path" points="3.47826087 11.5555556 5.79710145 11.5555556 5.79710145 12.7111111 3.47826087 12.7111111"></polygon>
            <polygon id="Path" points="13.9130435 26.5777778 16.8115942 26.5777778 16.8115942 27.7333333 13.9130435 27.7333333"></polygon>
            <polygon id="Path" points="13.9130435 28.3111111 15.6521739 28.3111111 15.6521739 29.4666667 13.9130435 29.4666667"></polygon>
            <path d="M24.9275362,21.9555556 L13.3333333,21.9555556 C12.3477129,21.9555556 11.5942029,22.7065539 11.5942029,23.6888889 L11.5942029,30.0444444 C11.5942029,31.0267795 12.3477129,31.7777778 13.3333333,31.7777778 L24.9275362,31.7777778 C25.9131567,31.7777778 26.6666667,31.0267795 26.6666667,30.0444444 L26.6666667,23.6888889 C26.6666667,22.7065539 25.9131567,21.9555556 24.9275362,21.9555556 Z M25.5072464,30.0444444 C25.5072464,30.3911675 25.2754189,30.6222222 24.9275362,30.6222222 L13.3333333,30.6222222 C12.9854507,30.6222222 12.7536232,30.3911675 12.7536232,30.0444444 L12.7536232,25.4222222 L25.5072464,25.4222222 L25.5072464,30.0444444 Z M25.5072464,24.2666667 L12.7536232,24.2666667 L12.7536232,23.6888889 C12.7536232,23.3421658 12.9854507,23.1111111 13.3333333,23.1111111 L24.9275362,23.1111111 C25.2754189,23.1111111 25.5072464,23.3421658 25.5072464,23.6888889 L25.5072464,24.2666667 Z" id="Shape"></path>
        </g>
    </g>
</svg>