<?xml version="1.0" encoding="UTF-8"?>
<svg width="50px" height="40px" viewBox="0 0 50 40" version="1.1" xmlns="http://www.w3.org/2000/svg" xmlns:xlink="http://www.w3.org/1999/xlink">
    <!-- Generator: Sketch 55.1 (78136) - https://sketchapp.com -->
    <title>about-us</title>
    <desc>Created with Sketch.</desc>
    <g id="about-us" stroke="none" stroke-width="1" fill="none" fill-rule="evenodd">
        <g id="round-info-button" transform="translate(8.000000, 3.000000)" fill="#28ACEB" fill-rule="nonzero">
            <path d="M15.6,26 L19.0666667,26 L19.0666667,15.6 L15.6,15.6 L15.6,26 Z M17.3333333,0 C7.8,0 0,7.8 0,17.3333333 C0,26.8666667 7.8,34.6666667 17.3333333,34.6666667 C26.8666667,34.6666667 34.6666667,26.8666667 34.6666667,17.3333333 C34.6666667,7.8 26.8666667,0 17.3333333,0 Z M17.3333333,31.2 C9.70666667,31.2 3.46666667,24.96 3.46666667,17.3333333 C3.46666667,9.70666667 9.70666667,3.46666667 17.3333333,3.46666667 C24.96,3.46666667 31.2,9.70666667 31.2,17.3333333 C31.2,24.96 24.96,31.2 17.3333333,31.2 Z M15.6,12.1333333 L19.0666667,12.1333333 L19.0666667,8.66666667 L15.6,8.66666667 L15.6,12.1333333 Z" id="Shape"></path>
        </g>
    </g>
</svg>